<?xml version="1.0" encoding="UTF-8"?>
<svg id="Capa_1" xmlns="http://www.w3.org/2000/svg" version="1.1" viewBox="0 0 859.56 859.56">
  <!-- Generator: Adobe Illustrator 29.1.0, SVG Export Plug-In . SVG Version: 2.1.0 Build 142)  -->
  <defs>
    <style>
      .st0 {
        fill: #fff;
      }

      .st1 {
        fill: #f0d800;
      }

      .st2 {
        fill: #c10c67;
      }
    </style>
  </defs>
  <circle class="st2" cx="429.78" cy="429.78" r="429.78"/>
  <g>
    <path class="st0" d="M413.59,395.4v167.52h-124.42v-29.5c0-9.5,3.8-18.61,10.55-25.3l113.86-112.72Z"/>
    <path class="st0" d="M118.69,395.4v167.52h124.18v-29.5c0-9.5-3.79-18.61-10.53-25.3l-113.65-112.72Z"/>
    <g>
      <path class="st0" d="M506.13,562.92h-49.04v-150.45h49.04v150.45Z"/>
      <path class="st0" d="M742.18,562.92h-29.22l-25.72.15-4.36-10.44c-15.27,10.1-34.33,16.1-54.33,16.1-27.13,0-50.08-9.45-68.85-28.33-18.77-18.89-28.16-41.77-28.16-68.65,0-20.58,5.81-39.17,17.44-55.75,11.62-16.59,27.12-28.39,46.49-35.41,11.38-4.12,22.52-6.18,33.42-6.18,20.58,0,39.17,5.88,55.76,17.62,16.58,11.75,28.39,27.31,35.41,46.67l22.11,124.23ZM676.85,471.57c0-17.02-6.9-30.26-20.71-39.74-7.99-5.59-17.2-8.39-27.6-8.39-16.95,0-30.03,6.81-39.23,20.42-5.81,8.51-8.72,17.74-8.72,27.71,0,16.78,6.9,29.9,20.71,39.38,8.47,5.84,17.55,8.75,27.24,8.75,13.31,0,24.7-4.68,34.14-14.04,9.44-9.36,14.17-20.72,14.17-34.09Z"/>
      <path class="st0" d="M481.62,315.04c22.69-.3,41.03,18.69,41.05,41.09.02,22.35-18.45,40.94-41.14,41.15-23.74.22-39.1-19.06-40.64-33.57-3.51-33.2,20.83-48.98,40.73-48.67Z"/>
      <path class="st1" d="M405.61,286.81q2.23,3.56,4.14,6.83c5.57,11.1,7.75,22.71,6.78,34.96-1.46,18.39-10.35,32.73-23.31,45.41-25.69,25.12-50.92,50.7-76.33,76.1-12.56,12.55-25.07,25.15-37.67,37.66-7.43,7.38-17.25,7.2-24.77-.33-36.84-36.83-73.7-73.65-110.5-110.53-6.3-6.31-12.83-12.42-17.39-20.28-7.09-12.23-10.21-25.29-8.85-39.36,2.1-21.82,12.68-38.46,31.18-49.97,11.83-7.36,24.87-10.14,38.79-9.12,18.44,1.35,33.02,10.03,45.53,23.13,9.02,9.45,18.37,18.58,27.6,27.83,3.62,3.63,8.91,3.56,12.57-.09,11.18-11.15,22.29-22.39,33.59-33.43,8.5-8.3,18.7-13.74,30.35-16.05,26.42-5.22,48.27,2.83,65.67,23.24,1.03,1.21,1.77,2.66,2.65,3.99Z"/>
    </g>
  </g>
</svg>